<svg width="23" height="42" viewBox="0 0 23 42" fill="none" xmlns="http://www.w3.org/2000/svg">
<path d="M21.5146 3.68126C21.7025 3.48236 21.8495 3.24839 21.947 2.9927C22.0445 2.73702 22.0907 2.46463 22.083 2.19108C22.0753 1.91753 22.0137 1.64819 21.9019 1.39843C21.7901 1.14867 21.6301 0.923376 21.4312 0.735422C21.2323 0.547467 20.9984 0.400529 20.7427 0.302997C20.487 0.205465 20.2146 0.159248 19.9411 0.166986C19.6675 0.174725 19.3982 0.236266 19.1484 0.348096C18.8987 0.459927 18.6734 0.619857 18.4854 0.818755L0.777075 19.5688C0.411374 19.9556 0.207611 20.4677 0.207611 21C0.207611 21.5323 0.411374 22.0444 0.777075 22.4313L18.4854 41.1833C18.6721 41.3866 18.8974 41.5507 19.148 41.6662C19.3987 41.7817 19.6698 41.8462 19.9457 41.856C20.2215 41.8658 20.4965 41.8207 20.7548 41.7233C21.013 41.6259 21.2493 41.4782 21.45 41.2887C21.6507 41.0992 21.8117 40.8717 21.9237 40.6195C22.0357 40.3672 22.0965 40.0952 22.1025 39.8193C22.1085 39.5434 22.0596 39.269 21.9587 39.0121C21.8578 38.7552 21.7068 38.521 21.5146 38.3229L5.15624 21L21.5146 3.68126Z" fill="white"/>
</svg>
